<?xml version="1.0" standalone="no"?>
<!DOCTYPE svg PUBLIC "-//W3C//DTD SVG 20010904//EN"
 "http://www.w3.org/TR/2001/REC-SVG-20010904/DTD/svg10.dtd">
<svg version="1.0" xmlns="http://www.w3.org/2000/svg"
 width="512.000000pt" height="512.000000pt" viewBox="0 0 512.000000 512.000000"
 preserveAspectRatio="xMidYMid meet">

<g transform="translate(0.000000,512.000000) scale(0.100000,-0.100000)"
fill="#FFFFFF" stroke="none">
<path d="M2522 4092 c-1966 -440 -2176 -489 -2193 -511 -24 -29 -24 -63 -1
-89 9 -11 278 -160 597 -332 319 -171 585 -317 592 -323 7 -7 94 -273 194
-592 115 -367 189 -588 202 -603 13 -14 32 -22 53 -22 29 0 62 31 342 315
l309 315 587 -315 c323 -173 598 -315 611 -315 14 0 34 9 44 19 12 12 89 230
200 568 587 1786 751 2290 751 2304 0 9 -9 28 -21 43 -16 20 -29 26 -57 25
-20 0 -1015 -220 -2210 -487z m1563 169 c-139 -76 -2486 -1281 -2495 -1281
-10 0 -960 507 -974 520 -11 11 -68 -3 839 200 446 99 1229 275 1740 390 512
114 937 209 945 209 8 0 -16 -17 -55 -38z m495 23 c0 -9 -802 -2458 -808
-2470 -7 -12 -1424 745 -1424 760 0 9 2211 1713 2225 1715 4 1 7 -2 7 -5z
m-575 -242 c-10 -9 -811 -622 -1510 -1156 -192 -147 -355 -277 -361 -289 -7
-12 -46 -152 -89 -312 -43 -159 -81 -294 -85 -299 -5 -4 -20 27 -33 70 -166
527 -248 796 -246 798 2 2 267 139 589 304 322 166 842 434 1155 596 521 270
608 313 580 288z m-1646 -1653 c53 -28 100 -55 105 -59 5 -5 -65 -86 -165
-190 -95 -100 -175 -177 -177 -171 -2 5 24 112 57 236 34 125 61 229 61 231 0
12 33 -1 119 -47z"/>
<path d="M1230 2123 c-20 -7 -233 -217 -421 -415 -124 -130 -149 -162 -149
-187 0 -20 8 -36 26 -50 56 -44 58 -43 352 256 150 153 277 289 283 302 17 43
-20 103 -63 100 -7 0 -20 -3 -28 -6z"/>
<path d="M2814 1697 c-11 -7 -186 -179 -387 -384 -325 -329 -367 -375 -367
-403 0 -20 9 -40 25 -55 27 -27 49 -31 81 -12 42 24 743 744 749 770 10 37 -2
65 -35 82 -34 18 -39 18 -66 2z"/>
<path d="M1275 1044 c-360 -367 -395 -405 -395 -435 0 -32 40 -69 75 -69 30 0
64 32 409 381 346 351 376 384 376 415 0 44 -30 74 -72 74 -30 0 -66 -34 -393
-366z"/>
</g>
</svg>
