<?xml version="1.0" standalone="no"?>
<!DOCTYPE svg PUBLIC "-//W3C//DTD SVG 20010904//EN"
 "http://www.w3.org/TR/2001/REC-SVG-20010904/DTD/svg10.dtd">
<svg version="1.0" xmlns="http://www.w3.org/2000/svg"
 width="512.000000pt" height="512.000000pt" viewBox="0 0 512.000000 512.000000"
 preserveAspectRatio="xMidYMid meet">

<g transform="translate(0.000000,512.000000) scale(0.100000,-0.100000)"
fill="#FFFFFF" stroke="none">
<path d="M4830 4489 c-30 -10 -1092 -343 -2360 -739 -1551 -484 -2309 -725
-2317 -736 -20 -27 -15 -68 9 -91 13 -11 234 -168 491 -349 258 -180 475 -337
482 -348 17 -27 715 -1565 715 -1576 0 -15 44 -40 71 -40 14 0 33 8 41 18 9 9
152 220 318 467 167 248 314 464 327 482 l23 32 375 -215 c206 -118 385 -214
398 -214 13 0 31 6 40 12 22 17 1537 3223 1537 3254 0 32 -34 64 -67 63 -16 0
-53 -9 -83 -20z m-2069 -1214 c-860 -498 -1566 -905 -1568 -905 -3 0 -190 129
-415 287 -264 185 -405 289 -396 294 7 4 411 131 898 283 487 151 1367 426
1955 610 589 184 1074 335 1080 335 5 1 -694 -406 -1554 -904z m1281 -513
c-367 -777 -672 -1411 -678 -1410 -5 2 -281 157 -612 346 l-602 343 1278 1068
c702 588 1278 1067 1279 1066 2 -1 -298 -637 -665 -1413z m158 1174 c-27 -25
-2130 -1782 -2193 -1831 -21 -17 -40 -39 -42 -50 -3 -11 -25 -260 -49 -554
-25 -293 -46 -535 -48 -537 -5 -4 -581 1266 -582 1283 -1 10 2909 1708 2934
1712 2 1 -7 -10 -20 -23z m-1899 -2138 c111 -63 198 -119 196 -126 -3 -16
-480 -723 -484 -718 -4 4 62 834 73 914 3 23 8 42 11 42 3 0 95 -51 204 -112z"/>
</g>
</svg>
